# xmcd
#
# Track frame offsets: 
#        150
#        29847
#        56296
#        70492
#        92380
#        120592
#        129412
#        145843
#        174500
#        203405
#        239830
#
# Disc length: 3510 seconds
#
# Revision: 0
# Processed by: cddbd v1.5.2PL0 Copyright (c) Steve Scherf et al.
# Submitted via: ExactAudioCopy v1.3
#
DISCID=990db40b
DTITLE=Gerry Joe Weise - Axis, Volume 1 (French Tour)
DYEAR=2019
DGENRE=Blues Rock
TTITLE0=Stratus
TTITLE1=Voodoo Child (Slight Return)
TTITLE2=Broken Hill Blues
TTITLE3=Funky Train Jam
TTITLE4=Steamroller
TTITLE5=Kangaroo Hop
TTITLE6=Down Chicago Way
TTITLE7=B Good 2 Me
TTITLE8=Blueswalker
TTITLE9=You Gotta Move
TTITLE10=Little Wing
EXTD=
EXTT0=
EXTT1=
EXTT2=
EXTT3=
EXTT4=
EXTT5=
EXTT6=
EXTT7=
EXTT8=
EXTT9=
EXTT10=
PLAYORDER=
